<svg version="1.2" xmlns="http://www.w3.org/2000/svg" viewBox="0 0 259 315" width="259" height="315">
	<title>New Project</title>
	<style>
		.s0 { fill: #000000 } 
	</style>
	<path fill-rule="evenodd" class="s0" d="m235.5 81.8c7.1 9.4 12.7 20.7 16.8 32 3.8 10.5 6.2 21.2 6.7 31-0.2 19-3.9 23.3-14.6 36.9l-6.7-11.4c-10.8-13.1-30.7-48.4-47.3-43.7-6.5 6.1-9 13.4-10.3 20.8 2.9 8.8 4.4 18.4 4.4 28.5 0 15.3-3.6 29.5-10 41.4 22.7 4.6 58 19.3 58 39.2-0.3 3.8-1.8 7.7-4.4 10.5-10.7 12.5-36.9 4.1-45.1 10 0.7 7 4.1 14.1 4.3 20.2 0.1 4.4-1.8 10.6-6.5 14-5.7 4.1-13 4.5-18.5 3-10.8-2.1-18.8-14.7-34.8-17.3-13.5 3.5-22.4 13.9-34.7 17.3-5.5 1.5-12.8 1.1-18.5-3-4.7-3.4-6.6-9.6-6.5-14-0.1-7.1 4.1-13.8 4.3-20.2-15.7-7.8-33.8 2-45.1-10-2.6-2.8-4.1-6.7-4.4-10.5 6.1-27.3 35.4-34.6 58-39.2-6.4-11.9-10-26.1-10-41.4 0-11.5 2-22.4 5.7-32.1-2.3-7.9-3.4-16-9.4-22.5-8.8-0.9-14.1 6.9-17.9 12.7-11.6 19.5-18.7 30.6-32.8 46.2-16.6-23.4-19.3-49.3-13.2-71 6.1-20.3 19.2-38.8 37.9-47.9 21.2-9.8 39.9-10.1 58.9 0.2 5.2-13.1 10.4-25.7 18-36.2 9.7-13.3 23.8-25.7 43.7-25.3 38.8 0.6 74 51.1 74 81.8zm-72.2-63.9c-35.8 2.4-44.8 44.7-55.2 71.3l-9.4-7.1c-18.4-12.3-31.1-13.7-49.9-4.6-12.9 6.2-23.7 20.6-28.5 36.8-3.4 11.4-3.8 23.2-1 33.7 9.5-13.6 15.8-30.1 28.3-39.2 7.5-8 26.3-8.5 35.5 3.9 4.8 7 7.4 14.5 9.5 22.2h72.1c0.6-1.9 1.1-3.7 2-6 3-7.1 7.8-16.3 18.4-19.5 18.1-3.9 32.5 7.1 43.5 18.5 4.5 4.7 8.5 9.7 12.1 14.5-0.7-6.8-2.5-14.6-5.3-22.5-13.1-36.7-37.9-51-70.4-32 2.6-16.4 16.9-35.7 46.3-27-9.1-17.1-30.4-42.4-48-43zm-71.1 135c-2.3 7-3.6 14.8-3.6 23 0 15.9 4.8 30 12.2 39.9 7.4 9.8 16.7 15.1 26.7 15.1 10.1 0 19.4-5.3 26.8-15.1 7.3-9.9 12.2-24 12.2-39.9 0-8.2-1.3-16-3.6-23zm11.4 47h47.9c0 0-8 14-24 14-16 0-23.9-14-23.9-14zm-11.2 33.6c-13.8 3.3-50.3 8.9-51.8 21.4 9.6 1.9 20.4 0.8 29 2.2 6 1 12.8 3.3 17.3 9.5 3.3 4.7 3.5 10.1 3 14.2-0.6 5.9-3.3 10.6-4 16.4 16-2.6 28.3-17.6 41.6-18.3 16-0.7 29.4 17.4 41.7 18.3-0.9-5.6-3.3-11.2-4-16.4-0.5-4.1-0.3-9.5 3-14.2 4.5-6.2 11.3-8.5 17.3-9.5 9.8-2.2 20 0.4 29-2.2-5.8-13.1-39.8-19.5-51.8-21.4-9.5 9.4-21.7 15.4-35.2 15.4-13.4 0-25.6-6-35.1-15.4z"/>
	<g id="Layer 1">
	</g>
</svg>